<svg width="16" height="16" viewBox="0 0 16 16" fill="none" xmlns="http://www.w3.org/2000/svg">
<rect x="1.42444" y="1.05469" width="12.3923" height="12.3923" rx="2" fill="#067BC2"/>
<path d="M11.7598 4.1385C11.7598 3.93613 11.6794 3.74207 11.5363 3.59898C11.3932 3.45588 11.1992 3.37548 10.9968 3.37545L4.89138 3.37545C4.79006 3.37369 4.68941 3.39213 4.59529 3.42968C4.50117 3.46724 4.41547 3.52316 4.3432 3.59419C4.27092 3.66522 4.21352 3.74993 4.17433 3.84339C4.13514 3.93684 4.11496 4.03716 4.11496 4.13849C4.11496 4.23983 4.13514 4.34015 4.17433 4.4336C4.21352 4.52706 4.27092 4.61177 4.3432 4.6828C4.41547 4.75383 4.50117 4.80975 4.59529 4.84731C4.68941 4.88486 4.79006 4.9033 4.89138 4.90154L9.15449 4.90154L3.59898 10.4571C3.45586 10.6002 3.37545 10.7943 3.37545 10.9967C3.37545 11.1991 3.45586 11.3932 3.59898 11.5363C3.7421 11.6794 3.93621 11.7598 4.13861 11.7598C4.34101 11.7598 4.53513 11.6794 4.67825 11.5363L10.2338 5.98081L10.2338 10.2439C10.2372 10.444 10.3192 10.6347 10.4619 10.775C10.6046 10.9152 10.7967 10.9938 10.9968 10.9938C11.1969 10.9938 11.389 10.9152 11.5317 10.775C11.6744 10.6347 11.7564 10.444 11.7598 10.2439L11.7598 4.1385Z" fill="#F5F5F5"/>
</svg>
