<svg width="20" height="19" viewBox="0 0 20 19" fill="none" xmlns="http://www.w3.org/2000/svg">
<path d="M19.8974 18.6201C19.8299 18.7356 19.7327 18.8315 19.6158 18.8982C19.4988 18.9649 19.3661 19 19.231 19H0.768484C0.633516 18.9999 0.500959 18.9647 0.384124 18.8979C0.26729 18.8312 0.17029 18.7352 0.102866 18.6197C0.0354414 18.5042 -3.46252e-05 18.3732 2.53589e-08 18.2399C3.46759e-05 18.1066 0.0355787 17.9756 0.103063 17.8602C1.56757 15.3591 3.82442 13.5658 6.45822 12.7157C5.15542 11.9495 4.14323 10.7822 3.57709 9.39281C3.01094 8.00345 2.92215 6.46893 3.32434 5.02489C3.72653 3.58085 4.59746 2.30715 5.8034 1.39939C7.00934 0.491631 8.48359 0 9.99976 0C11.5159 0 12.9902 0.491631 14.1961 1.39939C15.4021 2.30715 16.273 3.58085 16.6752 5.02489C17.0774 6.46893 16.9886 8.00345 16.4224 9.39281C15.8563 10.7822 14.8441 11.9495 13.5413 12.7157C16.1751 13.5658 18.432 15.3591 19.8965 17.8602C19.9641 17.9756 19.9998 18.1066 20 18.24C20.0002 18.3734 19.9648 18.5044 19.8974 18.6201Z" fill="#067BC2"/>
</svg>
