<svg width="21" height="21" viewBox="0 0 21 21" fill="none" xmlns="http://www.w3.org/2000/svg">
<path d="M18.5 18.5L13.5 13.5M1.5 8.5C1.5 9.41925 1.68106 10.3295 2.03284 11.1788C2.38463 12.0281 2.90024 12.7997 3.55025 13.4497C4.20026 14.0998 4.97194 14.6154 5.82122 14.9672C6.6705 15.3189 7.58075 15.5 8.5 15.5C9.41925 15.5 10.3295 15.3189 11.1788 14.9672C12.0281 14.6154 12.7997 14.0998 13.4497 13.4497C14.0998 12.7997 14.6154 12.0281 14.9672 11.1788C15.3189 10.3295 15.5 9.41925 15.5 8.5C15.5 7.58075 15.3189 6.6705 14.9672 5.82122C14.6154 4.97194 14.0998 4.20026 13.4497 3.55025C12.7997 2.90024 12.0281 2.38463 11.1788 2.03284C10.3295 1.68106 9.41925 1.5 8.5 1.5C7.58075 1.5 6.6705 1.68106 5.82122 2.03284C4.97194 2.38463 4.20026 2.90024 3.55025 3.55025C2.90024 4.20026 2.38463 4.97194 2.03284 5.82122C1.68106 6.6705 1.5 7.58075 1.5 8.5Z" stroke="#273D22" stroke-width="3" stroke-linecap="square" stroke-linejoin="round"/>
</svg>
