<svg width="32" height="32" viewBox="0 0 32 32" fill="none" xmlns="http://www.w3.org/2000/svg">
<circle cx="16" cy="16" r="15" fill="white" stroke="#067BC2" stroke-width="2"/>
<path d="M16 9H11C9.89543 9 9 9.89543 9 11V21C9 22.1046 9.89543 23 11 23H21C22.1046 23 23 22.1046 23 21V16" stroke="#067BC2" stroke-width="2" stroke-linecap="round"/>
<path d="M9 21L13.1584 16.944C13.2985 16.8073 13.4809 16.73 13.671 16.7266C13.8611 16.7233 14.0458 16.7941 14.1901 16.9258L17.5556 19.3448L19.4117 17.3698C19.5441 17.2288 19.7199 17.1434 19.9067 17.1293C20.0935 17.1152 20.2789 17.1732 20.4287 17.2928L23 19.3448M21.0556 13.9655V9M21.0556 9L19.1111 11.069M21.0556 9L23 11.069" stroke="#067BC2" stroke-width="2" stroke-linecap="round" stroke-linejoin="round"/>
</svg>
