<svg width="34" height="33" viewBox="0 0 34 33" fill="none" xmlns="http://www.w3.org/2000/svg">
<path d="M14.1875 2.77899C15.2446 0.407526 18.6109 0.40753 19.668 2.77899L22.4824 9.09247C22.6278 9.41845 22.936 9.64192 23.291 9.67938L30.165 10.405C32.747 10.6775 33.787 13.8787 31.8584 15.6169L26.7236 20.2448C26.4585 20.4837 26.3411 20.8459 26.415 21.195L27.8486 27.9577C28.3873 30.4976 25.6641 32.4766 23.415 31.1794L17.4277 27.7253C17.1185 27.5469 16.7369 27.5469 16.4277 27.7253L10.4404 31.1794C8.1913 32.4766 5.46811 30.4976 6.00682 27.9577L7.44041 21.195C7.51432 20.8459 7.3969 20.4837 7.13182 20.2448L1.99706 15.6169C0.0684061 13.8787 1.1084 10.6775 3.69041 10.405L10.5644 9.67938C10.9194 9.64192 11.2277 9.41845 11.373 9.09247L14.1875 2.77899Z" fill="#BA7517" stroke="white" stroke-width="2"/>
</svg>
