<svg width="22" height="21" viewBox="0 0 22 21" fill="none" xmlns="http://www.w3.org/2000/svg">
<path fill-rule="evenodd" clip-rule="evenodd" d="M6.237 2.76316C6.71971 1.92307 7.414 1.22546 8.25008 0.740421C9.08616 0.255387 10.0346 2.4643e-05 11 0C11.9654 2.4643e-05 12.9138 0.255387 13.7499 0.740421C14.586 1.22546 15.2803 1.92307 15.763 2.76316L16.72 4.42105H5.28L6.237 2.76316ZM1.7083 3.43295C1.96914 3.30206 2.27102 3.28058 2.54762 3.37322C2.82421 3.46585 3.05289 3.66504 3.1834 3.927C3.3451 4.25084 3.7334 4.67195 4.2537 5.02121C4.7883 5.37932 5.2591 5.52632 5.5 5.52632H16.5C16.7409 5.52632 17.2117 5.37932 17.7463 5.02121C18.2677 4.67195 18.6549 4.25084 18.8166 3.927C18.8784 3.79262 18.9664 3.67209 19.0754 3.57254C19.1844 3.47299 19.3122 3.39646 19.4513 3.34748C19.5903 3.29851 19.7377 3.2781 19.8847 3.28745C20.0317 3.2968 20.1754 3.33573 20.3071 3.40193C20.4389 3.46812 20.5561 3.56024 20.6517 3.67281C20.7474 3.78537 20.8196 3.9161 20.864 4.05723C20.9084 4.19836 20.9242 4.34702 20.9103 4.49439C20.8965 4.64175 20.8533 4.78482 20.7834 4.91511C20.3951 5.69653 19.6834 6.38068 18.9662 6.86037C18.6318 7.08552 18.2758 7.27657 17.9036 7.43068C18.2295 8.23911 18.457 9.08412 18.5812 9.94737H20.9C21.1917 9.94737 21.4715 10.0638 21.6778 10.2711C21.8841 10.4784 22 10.7595 22 11.0526C22 11.3458 21.8841 11.6269 21.6778 11.8342C21.4715 12.0414 21.1917 12.1579 20.9 12.1579H18.6868C18.6269 13.4214 18.3516 14.6652 17.8728 15.8351C18.502 16.1998 18.9321 16.7856 19.2027 17.3272C19.5864 18.1288 19.7902 19.0053 19.8 19.8947C19.8 20.1879 19.6841 20.469 19.4778 20.6763C19.2715 20.8836 18.9917 21 18.7 21C18.4083 21 18.1285 20.8836 17.9222 20.6763C17.7159 20.469 17.6 20.1879 17.6 19.8947C17.6 19.4814 17.4889 18.8271 17.2348 18.3164C17.0918 18.0291 16.9488 17.8644 16.8113 17.7748C15.6497 19.4173 14.0184 20.5822 12.1 20.9083V11.0526C12.1 10.7595 11.9841 10.4784 11.7778 10.2711C11.5715 10.0638 11.2917 9.94737 11 9.94737C10.7083 9.94737 10.4285 10.0638 10.2222 10.2711C10.0159 10.4784 9.9 10.7595 9.9 11.0526V20.9083C7.9816 20.5822 6.3503 19.4162 5.1887 17.7759C5.0501 17.8644 4.9082 18.0302 4.7652 18.3175C4.53409 18.8115 4.40963 19.349 4.4 19.8947C4.4 20.1879 4.28411 20.469 4.07782 20.6763C3.87153 20.8836 3.59174 21 3.3 21C3.00826 21 2.72847 20.8836 2.52218 20.6763C2.31589 20.469 2.2 20.1879 2.2 19.8947C2.20991 19.0057 2.4138 18.1296 2.7973 17.3283C3.0679 16.7845 3.498 16.2009 4.1272 15.8362C3.64832 14.666 3.37299 13.4218 3.3132 12.1579H1.1C0.808262 12.1579 0.528473 12.0414 0.322182 11.8342C0.115892 11.6269 0 11.3458 0 11.0526C0 10.7595 0.115892 10.4784 0.322182 10.2711C0.528473 10.0638 0.808262 9.94737 1.1 9.94737H3.4188C3.543 9.08412 3.77051 8.23911 4.0964 7.43068C3.7242 7.27657 3.36823 7.08552 3.0338 6.86037C2.3177 6.38068 1.6038 5.69653 1.2166 4.91511C1.08634 4.65302 1.06495 4.34969 1.15715 4.07177C1.24935 3.79386 1.44759 3.56408 1.7083 3.43295Z" fill="#273D22"/>
</svg>
