<svg width="21" height="22" viewBox="0 0 21 22" fill="none" xmlns="http://www.w3.org/2000/svg">
<path d="M7.42403 6.93316L9.76185 1.9759C9.82509 1.8342 9.92802 1.71385 10.0582 1.6294C10.1884 1.54494 10.3402 1.5 10.4954 1.5C10.6505 1.5 10.8024 1.54494 10.9326 1.6294C11.0627 1.71385 11.1657 1.8342 11.2289 1.9759L13.569 6.93316L18.7959 7.73424C19.4664 7.8355 19.7319 8.69959 19.2459 9.19464L15.4658 13.0493L16.3568 18.4971C16.4715 19.1969 15.7718 19.7302 15.171 19.3994L10.4954 16.8274L5.81973 19.3994C5.21897 19.7302 4.5192 19.1969 4.63395 18.4994L5.52498 13.0493L1.74487 9.19464C1.2566 8.69959 1.52436 7.83551 2.19488 7.73199L7.42403 6.93316Z" stroke="#273D22" stroke-width="3" stroke-linecap="round" stroke-linejoin="round"/>
</svg>
