<svg width="22" height="18" viewBox="0 0 22 18" fill="none" xmlns="http://www.w3.org/2000/svg">
<path d="M4.125 12.375H7.425V10.6875H4.675V7.3125H7.425V5.625H4.125C3.81333 5.625 3.55227 5.733 3.3418 5.949C3.13133 6.165 3.02573 6.432 3.025 6.75V11.25C3.025 11.5687 3.1306 11.8361 3.3418 12.0521C3.553 12.2681 3.81407 12.3757 4.125 12.375ZM8.415 12.375H11.715C12.0267 12.375 12.2881 12.267 12.4993 12.051C12.7105 11.835 12.8157 11.568 12.815 11.25V9.5625C12.815 9.24375 12.7094 8.94825 12.4982 8.676C12.287 8.40375 12.0259 8.268 11.715 8.26875H10.065V7.3125H12.815V5.625H9.515C9.20333 5.625 8.94227 5.733 8.7318 5.949C8.52133 6.165 8.41573 6.432 8.415 6.75V8.4375C8.415 8.75625 8.5206 9.04237 8.7318 9.29587C8.943 9.54937 9.20407 9.67575 9.515 9.675H11.165V10.6875H8.415V12.375ZM15.675 12.375H17.325L19.25 5.625H17.6L16.5 9.50625L15.4 5.625H13.75L15.675 12.375ZM2.2 18C1.595 18 1.07727 17.7799 0.6468 17.3396C0.216333 16.8994 0.000733333 16.3695 0 15.75V2.25C0 1.63125 0.2156 1.10175 0.6468 0.6615C1.078 0.22125 1.59573 0.00075 2.2 0H19.8C20.405 0 20.9231 0.2205 21.3543 0.6615C21.7855 1.1025 22.0007 1.632 22 2.25V15.75C22 16.3687 21.7848 16.8986 21.3543 17.3396C20.9238 17.7806 20.4057 18.0007 19.8 18H2.2Z" fill="#273D22"/>
</svg>
