<svg width="20" height="21" viewBox="0 0 20 21" fill="none" xmlns="http://www.w3.org/2000/svg">
<path d="M1.81771 7.875C1.81771 5.78642 2.67977 3.78338 4.21425 2.30653C5.74872 0.829685 7.82992 0 10 0C12.1701 0 14.2513 0.829685 15.7857 2.30653C17.3202 3.78338 18.1823 5.78642 18.1823 7.875V11.2061L19.9351 15.4254C19.9902 15.5581 20.0107 15.7018 19.9948 15.8439C19.9788 15.9859 19.927 16.1221 19.8437 16.2405C19.7605 16.3588 19.6484 16.4557 19.5173 16.5228C19.3861 16.5898 19.2399 16.6249 19.0914 16.625H0.908568C0.760077 16.6249 0.61387 16.5898 0.482725 16.5228C0.351581 16.4557 0.239492 16.3588 0.156257 16.2405C0.0730222 16.1221 0.0211746 15.9859 0.00524603 15.8439C-0.0106825 15.7018 0.00979303 15.5581 0.0648831 15.4254L1.81771 11.2061V7.875ZM6.47707 18.375C6.67728 19.1273 7.13242 19.7939 7.77047 20.2694C8.40853 20.7448 9.19308 21.0019 10 21C10.8069 21.0019 11.5915 20.7448 12.2295 20.2694C12.8676 19.7939 13.3227 19.1273 13.5229 18.375H6.47707Z" fill="#273D22"/>
</svg>
