<svg width="20" height="20" viewBox="0 0 20 20" fill="none" xmlns="http://www.w3.org/2000/svg">
<path d="M10 0C10.2471 0 10.4876 0.0788715 10.6826 0.224609L19.5713 6.86816C19.7049 6.968 19.8134 7.09611 19.8877 7.24219C19.962 7.38834 20.0001 7.54925 20 7.71191V18.9326C19.9999 19.2157 19.8831 19.4873 19.6748 19.6875C19.4666 19.8875 19.1841 19.9999 18.8896 20H12.2588V13.0801H7.89453V20H1.11133C0.816825 20 0.534494 19.8875 0.326172 19.6875C0.11785 19.4873 5.85355e-05 19.2157 0 18.9326V7.71191C-0.000106948 7.54925 0.0389593 7.38834 0.113281 7.24219C0.187587 7.09621 0.295229 6.96796 0.428711 6.86816L9.31836 0.224609C9.51327 0.0790437 9.75314 6.50913e-05 10 0Z" fill="#067BC2"/>
</svg>
